<?xml version="1.0" encoding="UTF-8" standalone="no"?>
<!DOCTYPE svg PUBLIC "-//W3C//DTD SVG 1.1//EN"
 "http://www.w3.org/Graphics/SVG/1.1/DTD/svg11.dtd">
<!-- Generated by graphviz version 2.38.0 (20140413.2041)
 -->
<!-- Title: 2&#45;Net Pages: 1 -->
<svg width="970pt" height="179pt"
 viewBox="0.00 0.00 970.00 179.00" xmlns="http://www.w3.org/2000/svg" xmlns:xlink="http://www.w3.org/1999/xlink">
<g id="graph0" class="graph" transform="scale(1 1) rotate(0) translate(4 175)">
<title>2&#45;Net</title>
<!-- 2069924689184 -->
<g id="node1" class="node"><title>2069924689184</title>
<polygon fill="black" stroke="black" points="324,-36 270,-36 270,-0 324,-0 324,-36"/>
</g>
<!-- 2069924689424 -->
<g id="node9" class="node"><title>2069924689424</title>
<ellipse fill="none" stroke="black" cx="387" cy="-72" rx="27" ry="27"/>
</g>
<!-- 2069924689184&#45;&gt;2069924689424 -->
<g id="edge10" class="edge"><title>2069924689184&#45;&gt;2069924689424</title>
<path fill="none" stroke="black" d="M324.403,-34.2018C333.938,-40.053 344.793,-46.7142 354.707,-52.7977"/>
<polygon fill="black" stroke="black" points="353.129,-55.9353 363.482,-58.1824 356.79,-49.969 353.129,-55.9353"/>
</g>
<!-- 2069924688032 -->
<g id="node11" class="node"><title>2069924688032</title>
<ellipse fill="none" stroke="black" cx="747" cy="-60" rx="27" ry="27"/>
</g>
<!-- 2069924689184&#45;&gt;2069924688032 -->
<g id="edge11" class="edge"><title>2069924689184&#45;&gt;2069924688032</title>
<path fill="none" stroke="black" d="M324.239,-17.7605C358.959,-17.4646 422.074,-17 476,-17 476,-17 476,-17 568,-17 619.216,-17 676.461,-34.0281 711.866,-46.6532"/>
<polygon fill="black" stroke="black" points="711.091,-50.0966 721.685,-50.2426 713.495,-43.5221 711.091,-50.0966"/>
</g>
<!-- 2069924691008 -->
<g id="node2" class="node"><title>2069924691008</title>
<polygon fill="none" stroke="black" points="684,-121 630,-121 630,-85 684,-85 684,-121"/>
<text text-anchor="middle" x="657" y="-99.9" font-family="Times New Roman,serif" font-size="12.00">D</text>
</g>
<!-- 2069924691008&#45;&gt;2069924688032 -->
<g id="edge3" class="edge"><title>2069924691008&#45;&gt;2069924688032</title>
<path fill="none" stroke="black" d="M684.403,-90.0986C693.44,-85.6828 703.662,-80.6877 713.146,-76.0539"/>
<polygon fill="black" stroke="black" points="714.863,-79.1103 722.311,-71.5754 711.79,-72.821 714.863,-79.1103"/>
</g>
<!-- 2069924688800 -->
<g id="node3" class="node"><title>2069924688800</title>
<polygon fill="black" stroke="black" points="504,-90 450,-90 450,-54 504,-54 504,-90"/>
</g>
<!-- 2069924689328 -->
<g id="node10" class="node"><title>2069924689328</title>
<ellipse fill="none" stroke="black" cx="567" cy="-144" rx="27" ry="27"/>
</g>
<!-- 2069924688800&#45;&gt;2069924689328 -->
<g id="edge12" class="edge"><title>2069924688800&#45;&gt;2069924689328</title>
<path fill="none" stroke="black" d="M500.206,-90.1686C511.541,-99.443 525.458,-110.83 537.569,-120.738"/>
<polygon fill="black" stroke="black" points="535.655,-123.694 545.611,-127.318 540.087,-118.277 535.655,-123.694"/>
</g>
<!-- 2069924690288 -->
<g id="node12" class="node"><title>2069924690288</title>
<ellipse fill="none" stroke="black" cx="567" cy="-72" rx="27" ry="27"/>
</g>
<!-- 2069924688800&#45;&gt;2069924690288 -->
<g id="edge13" class="edge"><title>2069924688800&#45;&gt;2069924690288</title>
<path fill="none" stroke="black" d="M504.403,-72C512.393,-72 521.311,-72 529.824,-72"/>
<polygon fill="black" stroke="black" points="529.919,-75.5001 539.919,-72 529.919,-68.5001 529.919,-75.5001"/>
</g>
<!-- 2069924689376 -->
<g id="node4" class="node"><title>2069924689376</title>
<polygon fill="none" stroke="black" points="324,-90 270,-90 270,-54 324,-54 324,-90"/>
<text text-anchor="middle" x="297" y="-68.9" font-family="Times New Roman,serif" font-size="12.00">B</text>
</g>
<!-- 2069924689376&#45;&gt;2069924689424 -->
<g id="edge2" class="edge"><title>2069924689376&#45;&gt;2069924689424</title>
<path fill="none" stroke="black" d="M324.403,-72C332.393,-72 341.311,-72 349.824,-72"/>
<polygon fill="black" stroke="black" points="349.919,-75.5001 359.919,-72 349.919,-68.5001 349.919,-75.5001"/>
</g>
<!-- 2069924688704 -->
<g id="node5" class="node"><title>2069924688704</title>
<polygon fill="black" stroke="black" points="864,-78 810,-78 810,-42 864,-42 864,-78"/>
</g>
<!-- 2069924691680 -->
<g id="node13" class="node"><title>2069924691680</title>
<ellipse fill="none" stroke="black" cx="931" cy="-60" rx="27" ry="27"/>
<ellipse fill="none" stroke="black" cx="931" cy="-60" rx="31" ry="31"/>
<text text-anchor="start" x="921" y="-51.9" font-family="Times New Roman,serif" font-size="32.00">â– </text>
</g>
<!-- 2069924688704&#45;&gt;2069924691680 -->
<g id="edge14" class="edge"><title>2069924688704&#45;&gt;2069924691680</title>
<path fill="none" stroke="black" d="M864.117,-60C872.136,-60 881.152,-60 889.881,-60"/>
<polygon fill="black" stroke="black" points="889.92,-63.5001 899.92,-60 889.919,-56.5001 889.92,-63.5001"/>
</g>
<!-- 2069924689040 -->
<g id="node6" class="node"><title>2069924689040</title>
<polygon fill="none" stroke="black" points="144,-63 90,-63 90,-27 144,-27 144,-63"/>
<text text-anchor="middle" x="117" y="-41.9" font-family="Times New Roman,serif" font-size="12.00">A</text>
</g>
<!-- 2069924691104 -->
<g id="node8" class="node"><title>2069924691104</title>
<ellipse fill="none" stroke="black" cx="207" cy="-45" rx="27" ry="27"/>
</g>
<!-- 2069924689040&#45;&gt;2069924691104 -->
<g id="edge1" class="edge"><title>2069924689040&#45;&gt;2069924691104</title>
<path fill="none" stroke="black" d="M144.403,-45C152.393,-45 161.311,-45 169.824,-45"/>
<polygon fill="black" stroke="black" points="169.919,-48.5001 179.919,-45 169.919,-41.5001 169.919,-48.5001"/>
</g>
<!-- 2069924688656 -->
<g id="node7" class="node"><title>2069924688656</title>
<ellipse fill="none" stroke="black" cx="27" cy="-45" rx="27" ry="27"/>
<text text-anchor="start" x="16" y="-36.3" font-family="Times New Roman,serif" font-size="34.00">â—</text>
</g>
<!-- 2069924688656&#45;&gt;2069924689040 -->
<g id="edge9" class="edge"><title>2069924688656&#45;&gt;2069924689040</title>
<path fill="none" stroke="black" d="M54.4029,-45C62.3932,-45 71.3106,-45 79.8241,-45"/>
<polygon fill="black" stroke="black" points="79.919,-48.5001 89.919,-45 79.919,-41.5001 79.919,-48.5001"/>
</g>
<!-- 2069924691104&#45;&gt;2069924689184 -->
<g id="edge5" class="edge"><title>2069924691104&#45;&gt;2069924689184</title>
<path fill="none" stroke="black" d="M232.982,-37.3351C241.415,-34.7476 251.003,-31.8059 260.111,-29.0115"/>
<polygon fill="black" stroke="black" points="261.194,-32.3402 269.727,-26.0609 259.141,-25.6481 261.194,-32.3402"/>
</g>
<!-- 2069924691104&#45;&gt;2069924689376 -->
<g id="edge4" class="edge"><title>2069924691104&#45;&gt;2069924689376</title>
<path fill="none" stroke="black" d="M232.982,-52.6649C241.415,-55.2524 251.003,-58.1941 260.111,-60.9885"/>
<polygon fill="black" stroke="black" points="259.141,-64.3519 269.727,-63.9391 261.194,-57.6598 259.141,-64.3519"/>
</g>
<!-- 2069924689424&#45;&gt;2069924688800 -->
<g id="edge6" class="edge"><title>2069924689424&#45;&gt;2069924688800</title>
<path fill="none" stroke="black" d="M414.403,-72C422.393,-72 431.311,-72 439.824,-72"/>
<polygon fill="black" stroke="black" points="439.919,-75.5001 449.919,-72 439.919,-68.5001 439.919,-75.5001"/>
</g>
<!-- 2069924689328&#45;&gt;2069924691008 -->
<g id="edge7" class="edge"><title>2069924689328&#45;&gt;2069924691008</title>
<path fill="none" stroke="black" d="M592.046,-132.797C600.825,-128.707 610.947,-123.99 620.512,-119.534"/>
<polygon fill="black" stroke="black" points="622.234,-122.593 629.82,-115.197 619.278,-116.248 622.234,-122.593"/>
</g>
<!-- 2069924688032&#45;&gt;2069924688704 -->
<g id="edge8" class="edge"><title>2069924688032&#45;&gt;2069924688704</title>
<path fill="none" stroke="black" d="M774.403,-60C782.393,-60 791.311,-60 799.824,-60"/>
<polygon fill="black" stroke="black" points="799.919,-63.5001 809.919,-60 799.919,-56.5001 799.919,-63.5001"/>
</g>
</g>
</svg>
