<?xml version="1.0" encoding="UTF-8" standalone="no"?>
<!DOCTYPE svg PUBLIC "-//W3C//DTD SVG 1.1//EN"
 "http://www.w3.org/Graphics/SVG/1.1/DTD/svg11.dtd">
<!-- Generated by graphviz version 2.38.0 (20140413.2041)
 -->
<!-- Title: 2&#45;Net Pages: 1 -->
<svg width="970pt" height="138pt"
 viewBox="0.00 0.00 970.00 138.00" xmlns="http://www.w3.org/2000/svg" xmlns:xlink="http://www.w3.org/1999/xlink">
<g id="graph0" class="graph" transform="scale(1 1) rotate(0) translate(4 134)">
<title>2&#45;Net</title>
<!-- 2069909073824 -->
<g id="node1" class="node"><title>2069909073824</title>
<polygon fill="none" stroke="black" points="144,-81 90,-81 90,-45 144,-45 144,-81"/>
<text text-anchor="middle" x="117" y="-59.9" font-family="Times New Roman,serif" font-size="12.00">A</text>
</g>
<!-- 2069924689616 -->
<g id="node8" class="node"><title>2069924689616</title>
<ellipse fill="none" stroke="black" cx="207" cy="-63" rx="27" ry="27"/>
</g>
<!-- 2069909073824&#45;&gt;2069924689616 -->
<g id="edge1" class="edge"><title>2069909073824&#45;&gt;2069924689616</title>
<path fill="none" stroke="black" d="M144.403,-63C152.393,-63 161.311,-63 169.824,-63"/>
<polygon fill="black" stroke="black" points="169.919,-66.5001 179.919,-63 169.919,-59.5001 169.919,-66.5001"/>
</g>
<!-- 2069909071520 -->
<g id="node2" class="node"><title>2069909071520</title>
<polygon fill="none" stroke="black" points="324,-108 270,-108 270,-72 324,-72 324,-108"/>
<text text-anchor="middle" x="297" y="-86.9" font-family="Times New Roman,serif" font-size="12.00">B</text>
</g>
<!-- 2069924687936 -->
<g id="node9" class="node"><title>2069924687936</title>
<ellipse fill="none" stroke="black" cx="387" cy="-63" rx="27" ry="27"/>
</g>
<!-- 2069909071520&#45;&gt;2069924687936 -->
<g id="edge2" class="edge"><title>2069909071520&#45;&gt;2069924687936</title>
<path fill="none" stroke="black" d="M324.403,-81.8991C332.79,-79.3259 342.197,-76.4394 351.088,-73.7117"/>
<polygon fill="black" stroke="black" points="352.29,-77.004 360.823,-70.7247 350.236,-70.3119 352.29,-77.004"/>
</g>
<!-- 2069909071856 -->
<g id="node3" class="node"><title>2069909071856</title>
<polygon fill="black" stroke="black" points="324,-54 270,-54 270,-18 324,-18 324,-54"/>
</g>
<!-- 2069909071856&#45;&gt;2069924687936 -->
<g id="edge10" class="edge"><title>2069909071856&#45;&gt;2069924687936</title>
<path fill="none" stroke="black" d="M324.403,-44.1009C332.79,-46.6741 342.197,-49.5606 351.088,-52.2883"/>
<polygon fill="black" stroke="black" points="350.236,-55.6881 360.823,-55.2753 352.29,-48.996 350.236,-55.6881"/>
</g>
<!-- 2069909073584 -->
<g id="node4" class="node"><title>2069909073584</title>
<polygon fill="black" stroke="black" points="504,-81 450,-81 450,-45 504,-45 504,-81"/>
</g>
<!-- 2069909071808 -->
<g id="node10" class="node"><title>2069909071808</title>
<ellipse fill="none" stroke="black" cx="567" cy="-99" rx="27" ry="27"/>
</g>
<!-- 2069909073584&#45;&gt;2069909071808 -->
<g id="edge11" class="edge"><title>2069909073584&#45;&gt;2069909071808</title>
<path fill="none" stroke="black" d="M504.403,-73.8012C513.195,-77.3981 523.11,-81.4542 532.374,-85.2441"/>
<polygon fill="black" stroke="black" points="531.138,-88.5198 541.719,-89.0668 533.789,-82.041 531.138,-88.5198"/>
</g>
<!-- 2069909070464 -->
<g id="node12" class="node"><title>2069909070464</title>
<ellipse fill="none" stroke="black" cx="567" cy="-27" rx="27" ry="27"/>
</g>
<!-- 2069909073584&#45;&gt;2069909070464 -->
<g id="edge12" class="edge"><title>2069909073584&#45;&gt;2069909070464</title>
<path fill="none" stroke="black" d="M504.403,-52.1988C513.195,-48.6019 523.11,-44.5458 532.374,-40.7559"/>
<polygon fill="black" stroke="black" points="533.789,-43.959 541.719,-36.9332 531.138,-37.4802 533.789,-43.959"/>
</g>
<!-- 2069909070992 -->
<g id="node5" class="node"><title>2069909070992</title>
<polygon fill="none" stroke="black" points="684,-117 630,-117 630,-81 684,-81 684,-117"/>
<text text-anchor="middle" x="657" y="-95.9" font-family="Times New Roman,serif" font-size="12.00">D</text>
</g>
<!-- 2069909071472 -->
<g id="node11" class="node"><title>2069909071472</title>
<ellipse fill="none" stroke="black" cx="747" cy="-99" rx="27" ry="27"/>
</g>
<!-- 2069909070992&#45;&gt;2069909071472 -->
<g id="edge3" class="edge"><title>2069909070992&#45;&gt;2069909071472</title>
<path fill="none" stroke="black" d="M684.403,-99C692.393,-99 701.311,-99 709.824,-99"/>
<polygon fill="black" stroke="black" points="709.919,-102.5 719.919,-99 709.919,-95.5001 709.919,-102.5"/>
</g>
<!-- 2069909073104 -->
<g id="node6" class="node"><title>2069909073104</title>
<polygon fill="black" stroke="black" points="864,-117 810,-117 810,-81 864,-81 864,-117"/>
</g>
<!-- 2069924690720 -->
<g id="node13" class="node"><title>2069924690720</title>
<ellipse fill="none" stroke="black" cx="931" cy="-99" rx="27" ry="27"/>
<ellipse fill="none" stroke="black" cx="931" cy="-99" rx="31" ry="31"/>
<text text-anchor="start" x="921" y="-90.9" font-family="Times New Roman,serif" font-size="32.00">â– </text>
</g>
<!-- 2069909073104&#45;&gt;2069924690720 -->
<g id="edge13" class="edge"><title>2069909073104&#45;&gt;2069924690720</title>
<path fill="none" stroke="black" d="M864.117,-99C872.136,-99 881.152,-99 889.881,-99"/>
<polygon fill="black" stroke="black" points="889.92,-102.5 899.92,-99 889.919,-95.5001 889.92,-102.5"/>
</g>
<!-- 2069924690480 -->
<g id="node7" class="node"><title>2069924690480</title>
<ellipse fill="none" stroke="black" cx="27" cy="-63" rx="27" ry="27"/>
<text text-anchor="start" x="16" y="-54.3" font-family="Times New Roman,serif" font-size="34.00">â—</text>
</g>
<!-- 2069924690480&#45;&gt;2069909073824 -->
<g id="edge9" class="edge"><title>2069924690480&#45;&gt;2069909073824</title>
<path fill="none" stroke="black" d="M54.4029,-63C62.3932,-63 71.3106,-63 79.8241,-63"/>
<polygon fill="black" stroke="black" points="79.919,-66.5001 89.919,-63 79.919,-59.5001 79.919,-66.5001"/>
</g>
<!-- 2069924689616&#45;&gt;2069909071520 -->
<g id="edge4" class="edge"><title>2069924689616&#45;&gt;2069909071520</title>
<path fill="none" stroke="black" d="M232.982,-70.6649C241.415,-73.2524 251.003,-76.1941 260.111,-78.9885"/>
<polygon fill="black" stroke="black" points="259.141,-82.3519 269.727,-81.9391 261.194,-75.6598 259.141,-82.3519"/>
</g>
<!-- 2069924689616&#45;&gt;2069909071856 -->
<g id="edge5" class="edge"><title>2069924689616&#45;&gt;2069909071856</title>
<path fill="none" stroke="black" d="M232.982,-55.3351C241.415,-52.7476 251.003,-49.8059 260.111,-47.0115"/>
<polygon fill="black" stroke="black" points="261.194,-50.3402 269.727,-44.0609 259.141,-43.6481 261.194,-50.3402"/>
</g>
<!-- 2069924687936&#45;&gt;2069909073584 -->
<g id="edge6" class="edge"><title>2069924687936&#45;&gt;2069909073584</title>
<path fill="none" stroke="black" d="M414.403,-63C422.393,-63 431.311,-63 439.824,-63"/>
<polygon fill="black" stroke="black" points="439.919,-66.5001 449.919,-63 439.919,-59.5001 439.919,-66.5001"/>
</g>
<!-- 2069909071808&#45;&gt;2069909070992 -->
<g id="edge7" class="edge"><title>2069909071808&#45;&gt;2069909070992</title>
<path fill="none" stroke="black" d="M594.403,-99C602.393,-99 611.311,-99 619.824,-99"/>
<polygon fill="black" stroke="black" points="619.919,-102.5 629.919,-99 619.919,-95.5001 619.919,-102.5"/>
</g>
<!-- 2069909071472&#45;&gt;2069909073104 -->
<g id="edge8" class="edge"><title>2069909071472&#45;&gt;2069909073104</title>
<path fill="none" stroke="black" d="M774.403,-99C782.393,-99 791.311,-99 799.824,-99"/>
<polygon fill="black" stroke="black" points="799.919,-102.5 809.919,-99 799.919,-95.5001 799.919,-102.5"/>
</g>
</g>
</svg>
