<?xml version="1.0" encoding="UTF-8" standalone="no"?>
<!DOCTYPE svg PUBLIC "-//W3C//DTD SVG 1.1//EN"
 "http://www.w3.org/Graphics/SVG/1.1/DTD/svg11.dtd">
<!-- Generated by graphviz version 2.38.0 (20140413.2041)
 -->
<!-- Title: 2&#45;Net Pages: 1 -->
<svg width="970pt" height="134pt"
 viewBox="0.00 0.00 970.00 134.00" xmlns="http://www.w3.org/2000/svg" xmlns:xlink="http://www.w3.org/1999/xlink">
<g id="graph0" class="graph" transform="scale(1 1) rotate(0) translate(4 130)">
<title>2&#45;Net</title>
<!-- 2069924410560 -->
<g id="node1" class="node"><title>2069924410560</title>
<polygon fill="none" stroke="black" points="144,-81 90,-81 90,-45 144,-45 144,-81"/>
<text text-anchor="middle" x="117" y="-59.9" font-family="Times New Roman,serif" font-size="12.00">A</text>
</g>
<!-- 2069911324560 -->
<g id="node9" class="node"><title>2069911324560</title>
<ellipse fill="none" stroke="black" cx="207" cy="-63" rx="27" ry="27"/>
</g>
<!-- 2069924410560&#45;&gt;2069911324560 -->
<g id="edge1" class="edge"><title>2069924410560&#45;&gt;2069911324560</title>
<path fill="none" stroke="black" d="M144.403,-63C152.393,-63 161.311,-63 169.824,-63"/>
<polygon fill="black" stroke="black" points="169.919,-66.5001 179.919,-63 169.919,-59.5001 169.919,-66.5001"/>
</g>
<!-- 2069924413056 -->
<g id="node2" class="node"><title>2069924413056</title>
<polygon fill="none" stroke="black" points="684,-117 630,-117 630,-81 684,-81 684,-117"/>
<text text-anchor="middle" x="657" y="-95.9" font-family="Times New Roman,serif" font-size="12.00">D</text>
</g>
<!-- 2069911322832 -->
<g id="node12" class="node"><title>2069911322832</title>
<ellipse fill="none" stroke="black" cx="747" cy="-99" rx="27" ry="27"/>
</g>
<!-- 2069924413056&#45;&gt;2069911322832 -->
<g id="edge4" class="edge"><title>2069924413056&#45;&gt;2069911322832</title>
<path fill="none" stroke="black" d="M684.403,-99C692.393,-99 701.311,-99 709.824,-99"/>
<polygon fill="black" stroke="black" points="709.919,-102.5 719.919,-99 709.919,-95.5001 709.919,-102.5"/>
</g>
<!-- 2069924409984 -->
<g id="node3" class="node"><title>2069924409984</title>
<polygon fill="none" stroke="black" points="684,-45 630,-45 630,-9 684,-9 684,-45"/>
<text text-anchor="middle" x="657" y="-23.9" font-family="Times New Roman,serif" font-size="12.00">C</text>
</g>
<!-- 2069924411376 -->
<g id="node14" class="node"><title>2069924411376</title>
<ellipse fill="none" stroke="black" cx="747" cy="-27" rx="27" ry="27"/>
</g>
<!-- 2069924409984&#45;&gt;2069924411376 -->
<g id="edge3" class="edge"><title>2069924409984&#45;&gt;2069924411376</title>
<path fill="none" stroke="black" d="M684.403,-27C692.393,-27 701.311,-27 709.824,-27"/>
<polygon fill="black" stroke="black" points="709.919,-30.5001 719.919,-27 709.919,-23.5001 709.919,-30.5001"/>
</g>
<!-- 2069924412096 -->
<g id="node4" class="node"><title>2069924412096</title>
<polygon fill="black" stroke="black" points="864,-81 810,-81 810,-45 864,-45 864,-81"/>
</g>
<!-- 2069911324992 -->
<g id="node15" class="node"><title>2069911324992</title>
<ellipse fill="none" stroke="black" cx="931" cy="-63" rx="27" ry="27"/>
<ellipse fill="none" stroke="black" cx="931" cy="-63" rx="31" ry="31"/>
<text text-anchor="start" x="921" y="-54.9" font-family="Times New Roman,serif" font-size="32.00">â– </text>
</g>
<!-- 2069924412096&#45;&gt;2069911324992 -->
<g id="edge16" class="edge"><title>2069924412096&#45;&gt;2069911324992</title>
<path fill="none" stroke="black" d="M864.117,-63C872.136,-63 881.152,-63 889.881,-63"/>
<polygon fill="black" stroke="black" points="889.92,-66.5001 899.92,-63 889.919,-59.5001 889.92,-66.5001"/>
</g>
<!-- 2069924413296 -->
<g id="node5" class="node"><title>2069924413296</title>
<polygon fill="black" stroke="black" points="324,-108 270,-108 270,-72 324,-72 324,-108"/>
</g>
<!-- 2069911326240 -->
<g id="node10" class="node"><title>2069911326240</title>
<ellipse fill="none" stroke="black" cx="387" cy="-63" rx="27" ry="27"/>
</g>
<!-- 2069924413296&#45;&gt;2069911326240 -->
<g id="edge13" class="edge"><title>2069924413296&#45;&gt;2069911326240</title>
<path fill="none" stroke="black" d="M324.403,-81.8991C332.79,-79.3259 342.197,-76.4394 351.088,-73.7117"/>
<polygon fill="black" stroke="black" points="352.29,-77.004 360.823,-70.7247 350.236,-70.3119 352.29,-77.004"/>
</g>
<!-- 2069924410320 -->
<g id="node6" class="node"><title>2069924410320</title>
<polygon fill="none" stroke="black" points="324,-54 270,-54 270,-18 324,-18 324,-54"/>
<text text-anchor="middle" x="297" y="-32.9" font-family="Times New Roman,serif" font-size="12.00">B</text>
</g>
<!-- 2069924410320&#45;&gt;2069911326240 -->
<g id="edge2" class="edge"><title>2069924410320&#45;&gt;2069911326240</title>
<path fill="none" stroke="black" d="M324.403,-44.1009C332.79,-46.6741 342.197,-49.5606 351.088,-52.2883"/>
<polygon fill="black" stroke="black" points="350.236,-55.6881 360.823,-55.2753 352.29,-48.996 350.236,-55.6881"/>
</g>
<!-- 2069924412240 -->
<g id="node7" class="node"><title>2069924412240</title>
<polygon fill="black" stroke="black" points="504,-81 450,-81 450,-45 504,-45 504,-81"/>
</g>
<!-- 2069911323504 -->
<g id="node11" class="node"><title>2069911323504</title>
<ellipse fill="none" stroke="black" cx="567" cy="-99" rx="27" ry="27"/>
</g>
<!-- 2069924412240&#45;&gt;2069911323504 -->
<g id="edge14" class="edge"><title>2069924412240&#45;&gt;2069911323504</title>
<path fill="none" stroke="black" d="M504.403,-73.8012C513.195,-77.3981 523.11,-81.4542 532.374,-85.2441"/>
<polygon fill="black" stroke="black" points="531.138,-88.5198 541.719,-89.0668 533.789,-82.041 531.138,-88.5198"/>
</g>
<!-- 2069924412528 -->
<g id="node13" class="node"><title>2069924412528</title>
<ellipse fill="none" stroke="black" cx="567" cy="-27" rx="27" ry="27"/>
</g>
<!-- 2069924412240&#45;&gt;2069924412528 -->
<g id="edge15" class="edge"><title>2069924412240&#45;&gt;2069924412528</title>
<path fill="none" stroke="black" d="M504.403,-52.1988C513.195,-48.6019 523.11,-44.5458 532.374,-40.7559"/>
<polygon fill="black" stroke="black" points="533.789,-43.959 541.719,-36.9332 531.138,-37.4802 533.789,-43.959"/>
</g>
<!-- 2069911325760 -->
<g id="node8" class="node"><title>2069911325760</title>
<ellipse fill="none" stroke="black" cx="27" cy="-63" rx="27" ry="27"/>
<text text-anchor="start" x="16" y="-54.3" font-family="Times New Roman,serif" font-size="34.00">â—</text>
</g>
<!-- 2069911325760&#45;&gt;2069924410560 -->
<g id="edge12" class="edge"><title>2069911325760&#45;&gt;2069924410560</title>
<path fill="none" stroke="black" d="M54.4029,-63C62.3932,-63 71.3106,-63 79.8241,-63"/>
<polygon fill="black" stroke="black" points="79.919,-66.5001 89.919,-63 79.919,-59.5001 79.919,-66.5001"/>
</g>
<!-- 2069911324560&#45;&gt;2069924413296 -->
<g id="edge6" class="edge"><title>2069911324560&#45;&gt;2069924413296</title>
<path fill="none" stroke="black" d="M232.982,-70.6649C241.415,-73.2524 251.003,-76.1941 260.111,-78.9885"/>
<polygon fill="black" stroke="black" points="259.141,-82.3519 269.727,-81.9391 261.194,-75.6598 259.141,-82.3519"/>
</g>
<!-- 2069911324560&#45;&gt;2069924410320 -->
<g id="edge5" class="edge"><title>2069911324560&#45;&gt;2069924410320</title>
<path fill="none" stroke="black" d="M232.982,-55.3351C241.415,-52.7476 251.003,-49.8059 260.111,-47.0115"/>
<polygon fill="black" stroke="black" points="261.194,-50.3402 269.727,-44.0609 259.141,-43.6481 261.194,-50.3402"/>
</g>
<!-- 2069911326240&#45;&gt;2069924412240 -->
<g id="edge7" class="edge"><title>2069911326240&#45;&gt;2069924412240</title>
<path fill="none" stroke="black" d="M414.403,-63C422.393,-63 431.311,-63 439.824,-63"/>
<polygon fill="black" stroke="black" points="439.919,-66.5001 449.919,-63 439.919,-59.5001 439.919,-66.5001"/>
</g>
<!-- 2069911323504&#45;&gt;2069924413056 -->
<g id="edge8" class="edge"><title>2069911323504&#45;&gt;2069924413056</title>
<path fill="none" stroke="black" d="M594.403,-99C602.393,-99 611.311,-99 619.824,-99"/>
<polygon fill="black" stroke="black" points="619.919,-102.5 629.919,-99 619.919,-95.5001 619.919,-102.5"/>
</g>
<!-- 2069911322832&#45;&gt;2069924412096 -->
<g id="edge9" class="edge"><title>2069911322832&#45;&gt;2069924412096</title>
<path fill="none" stroke="black" d="M772.513,-88.972C781.119,-85.4514 790.971,-81.421 800.306,-77.6022"/>
<polygon fill="black" stroke="black" points="801.842,-80.7554 809.772,-73.7296 799.191,-74.2766 801.842,-80.7554"/>
</g>
<!-- 2069924412528&#45;&gt;2069924409984 -->
<g id="edge10" class="edge"><title>2069924412528&#45;&gt;2069924409984</title>
<path fill="none" stroke="black" d="M594.403,-27C602.393,-27 611.311,-27 619.824,-27"/>
<polygon fill="black" stroke="black" points="619.919,-30.5001 629.919,-27 619.919,-23.5001 619.919,-30.5001"/>
</g>
<!-- 2069924411376&#45;&gt;2069924412096 -->
<g id="edge11" class="edge"><title>2069924411376&#45;&gt;2069924412096</title>
<path fill="none" stroke="black" d="M772.513,-37.028C781.119,-40.5486 790.971,-44.579 800.306,-48.3978"/>
<polygon fill="black" stroke="black" points="799.191,-51.7234 809.772,-52.2704 801.842,-45.2446 799.191,-51.7234"/>
</g>
</g>
</svg>
