<?xml version="1.0" encoding="UTF-8" standalone="no"?>
<!DOCTYPE svg PUBLIC "-//W3C//DTD SVG 1.1//EN"
 "http://www.w3.org/Graphics/SVG/1.1/DTD/svg11.dtd">
<!-- Generated by graphviz version 2.38.0 (20140413.2041)
 -->
<!-- Title: 2&#45;Net Pages: 1 -->
<svg width="610pt" height="70pt"
 viewBox="0.00 0.00 610.00 70.00" xmlns="http://www.w3.org/2000/svg" xmlns:xlink="http://www.w3.org/1999/xlink">
<g id="graph0" class="graph" transform="scale(1 1) rotate(0) translate(4 66)">
<title>2&#45;Net</title>
<!-- 2069492659008 -->
<g id="node1" class="node"><title>2069492659008</title>
<polygon fill="none" stroke="black" points="144,-49 90,-49 90,-13 144,-13 144,-49"/>
<text text-anchor="middle" x="117" y="-27.9" font-family="Times New Roman,serif" font-size="12.00">A</text>
</g>
<!-- 2069924484432 -->
<g id="node5" class="node"><title>2069924484432</title>
<ellipse fill="none" stroke="black" cx="207" cy="-31" rx="27" ry="27"/>
</g>
<!-- 2069492659008&#45;&gt;2069924484432 -->
<g id="edge1" class="edge"><title>2069492659008&#45;&gt;2069924484432</title>
<path fill="none" stroke="black" d="M144.403,-31C152.393,-31 161.311,-31 169.824,-31"/>
<polygon fill="black" stroke="black" points="169.919,-34.5001 179.919,-31 169.919,-27.5001 169.919,-34.5001"/>
</g>
<!-- 2069492658720 -->
<g id="node2" class="node"><title>2069492658720</title>
<polygon fill="none" stroke="black" points="504,-49 450,-49 450,-13 504,-13 504,-49"/>
<text text-anchor="middle" x="477" y="-27.9" font-family="Times New Roman,serif" font-size="12.00">D</text>
</g>
<!-- 2069924486352 -->
<g id="node7" class="node"><title>2069924486352</title>
<ellipse fill="none" stroke="black" cx="571" cy="-31" rx="27" ry="27"/>
<ellipse fill="none" stroke="black" cx="571" cy="-31" rx="31" ry="31"/>
<text text-anchor="start" x="561" y="-22.9" font-family="Times New Roman,serif" font-size="32.00">â– </text>
</g>
<!-- 2069492658720&#45;&gt;2069924486352 -->
<g id="edge3" class="edge"><title>2069492658720&#45;&gt;2069924486352</title>
<path fill="none" stroke="black" d="M504.117,-31C512.136,-31 521.152,-31 529.881,-31"/>
<polygon fill="black" stroke="black" points="529.92,-34.5001 539.92,-31 529.919,-27.5001 529.92,-34.5001"/>
</g>
<!-- 2069492659344 -->
<g id="node3" class="node"><title>2069492659344</title>
<polygon fill="none" stroke="black" points="324,-49 270,-49 270,-13 324,-13 324,-49"/>
<text text-anchor="middle" x="297" y="-27.9" font-family="Times New Roman,serif" font-size="12.00">B</text>
</g>
<!-- 2069924486976 -->
<g id="node6" class="node"><title>2069924486976</title>
<ellipse fill="none" stroke="black" cx="387" cy="-31" rx="27" ry="27"/>
</g>
<!-- 2069492659344&#45;&gt;2069924486976 -->
<g id="edge2" class="edge"><title>2069492659344&#45;&gt;2069924486976</title>
<path fill="none" stroke="black" d="M324.403,-31C332.393,-31 341.311,-31 349.824,-31"/>
<polygon fill="black" stroke="black" points="349.919,-34.5001 359.919,-31 349.919,-27.5001 349.919,-34.5001"/>
</g>
<!-- 2069924484384 -->
<g id="node4" class="node"><title>2069924484384</title>
<ellipse fill="none" stroke="black" cx="27" cy="-31" rx="27" ry="27"/>
<text text-anchor="start" x="16" y="-22.3" font-family="Times New Roman,serif" font-size="34.00">â—</text>
</g>
<!-- 2069924484384&#45;&gt;2069492659008 -->
<g id="edge6" class="edge"><title>2069924484384&#45;&gt;2069492659008</title>
<path fill="none" stroke="black" d="M54.4029,-31C62.3932,-31 71.3106,-31 79.8241,-31"/>
<polygon fill="black" stroke="black" points="79.919,-34.5001 89.919,-31 79.919,-27.5001 79.919,-34.5001"/>
</g>
<!-- 2069924484432&#45;&gt;2069492659344 -->
<g id="edge4" class="edge"><title>2069924484432&#45;&gt;2069492659344</title>
<path fill="none" stroke="black" d="M234.403,-31C242.393,-31 251.311,-31 259.824,-31"/>
<polygon fill="black" stroke="black" points="259.919,-34.5001 269.919,-31 259.919,-27.5001 259.919,-34.5001"/>
</g>
<!-- 2069924486976&#45;&gt;2069492658720 -->
<g id="edge5" class="edge"><title>2069924486976&#45;&gt;2069492658720</title>
<path fill="none" stroke="black" d="M414.403,-31C422.393,-31 431.311,-31 439.824,-31"/>
<polygon fill="black" stroke="black" points="439.919,-34.5001 449.919,-31 439.919,-27.5001 439.919,-34.5001"/>
</g>
</g>
</svg>
