<?xml version="1.0" encoding="UTF-8" standalone="no"?>
<!DOCTYPE svg PUBLIC "-//W3C//DTD SVG 1.1//EN"
 "http://www.w3.org/Graphics/SVG/1.1/DTD/svg11.dtd">
<!-- Generated by graphviz version 2.38.0 (20140413.2041)
 -->
<!-- Title: 2&#45;Net Pages: 1 -->
<svg width="970pt" height="147pt"
 viewBox="0.00 0.00 970.00 147.00" xmlns="http://www.w3.org/2000/svg" xmlns:xlink="http://www.w3.org/1999/xlink">
<g id="graph0" class="graph" transform="scale(1 1) rotate(0) translate(4 143)">
<title>2&#45;Net</title>
<!-- 2069924413248 -->
<g id="node1" class="node"><title>2069924413248</title>
<polygon fill="none" stroke="black" points="144,-63 90,-63 90,-27 144,-27 144,-63"/>
<text text-anchor="middle" x="117" y="-41.9" font-family="Times New Roman,serif" font-size="12.00">A</text>
</g>
<!-- 2069924410656 -->
<g id="node8" class="node"><title>2069924410656</title>
<ellipse fill="none" stroke="black" cx="207" cy="-45" rx="27" ry="27"/>
</g>
<!-- 2069924413248&#45;&gt;2069924410656 -->
<g id="edge1" class="edge"><title>2069924413248&#45;&gt;2069924410656</title>
<path fill="none" stroke="black" d="M144.403,-45C152.393,-45 161.311,-45 169.824,-45"/>
<polygon fill="black" stroke="black" points="169.919,-48.5001 179.919,-45 169.919,-41.5001 169.919,-48.5001"/>
</g>
<!-- 2069924409888 -->
<g id="node2" class="node"><title>2069924409888</title>
<polygon fill="none" stroke="black" points="324,-90 270,-90 270,-54 324,-54 324,-90"/>
<text text-anchor="middle" x="297" y="-68.9" font-family="Times New Roman,serif" font-size="12.00">B</text>
</g>
<!-- 2069924412864 -->
<g id="node9" class="node"><title>2069924412864</title>
<ellipse fill="none" stroke="black" cx="387" cy="-72" rx="27" ry="27"/>
</g>
<!-- 2069924409888&#45;&gt;2069924412864 -->
<g id="edge2" class="edge"><title>2069924409888&#45;&gt;2069924412864</title>
<path fill="none" stroke="black" d="M324.403,-72C332.393,-72 341.311,-72 349.824,-72"/>
<polygon fill="black" stroke="black" points="349.919,-75.5001 359.919,-72 349.919,-68.5001 349.919,-75.5001"/>
</g>
<!-- 2069924412960 -->
<g id="node3" class="node"><title>2069924412960</title>
<polygon fill="black" stroke="black" points="504,-90 450,-90 450,-54 504,-54 504,-90"/>
</g>
<!-- 2069924409696 -->
<g id="node10" class="node"><title>2069924409696</title>
<ellipse fill="none" stroke="black" cx="567" cy="-108" rx="27" ry="27"/>
</g>
<!-- 2069924412960&#45;&gt;2069924409696 -->
<g id="edge10" class="edge"><title>2069924412960&#45;&gt;2069924409696</title>
<path fill="none" stroke="black" d="M504.403,-82.8012C513.195,-86.3981 523.11,-90.4542 532.374,-94.2441"/>
<polygon fill="black" stroke="black" points="531.138,-97.5198 541.719,-98.0668 533.789,-91.041 531.138,-97.5198"/>
</g>
<!-- 2069924411424 -->
<g id="node12" class="node"><title>2069924411424</title>
<ellipse fill="none" stroke="black" cx="567" cy="-36" rx="27" ry="27"/>
</g>
<!-- 2069924412960&#45;&gt;2069924411424 -->
<g id="edge11" class="edge"><title>2069924412960&#45;&gt;2069924411424</title>
<path fill="none" stroke="black" d="M504.403,-61.1988C513.195,-57.6019 523.11,-53.5458 532.374,-49.7559"/>
<polygon fill="black" stroke="black" points="533.789,-52.959 541.719,-45.9332 531.138,-46.4802 533.789,-52.959"/>
</g>
<!-- 2069924413392 -->
<g id="node4" class="node"><title>2069924413392</title>
<polygon fill="black" stroke="black" points="324,-36 270,-36 270,-0 324,-0 324,-36"/>
</g>
<!-- 2069924409552 -->
<g id="node5" class="node"><title>2069924409552</title>
<polygon fill="none" stroke="black" points="684,-126 630,-126 630,-90 684,-90 684,-126"/>
<text text-anchor="middle" x="657" y="-104.9" font-family="Times New Roman,serif" font-size="12.00">D</text>
</g>
<!-- 2069924412048 -->
<g id="node11" class="node"><title>2069924412048</title>
<ellipse fill="none" stroke="black" cx="747" cy="-108" rx="27" ry="27"/>
</g>
<!-- 2069924409552&#45;&gt;2069924412048 -->
<g id="edge3" class="edge"><title>2069924409552&#45;&gt;2069924412048</title>
<path fill="none" stroke="black" d="M684.403,-108C692.393,-108 701.311,-108 709.824,-108"/>
<polygon fill="black" stroke="black" points="709.919,-111.5 719.919,-108 709.919,-104.5 709.919,-111.5"/>
</g>
<!-- 2069924411568 -->
<g id="node6" class="node"><title>2069924411568</title>
<polygon fill="black" stroke="black" points="864,-126 810,-126 810,-90 864,-90 864,-126"/>
</g>
<!-- 2069924412816 -->
<g id="node13" class="node"><title>2069924412816</title>
<ellipse fill="none" stroke="black" cx="931" cy="-108" rx="27" ry="27"/>
<ellipse fill="none" stroke="black" cx="931" cy="-108" rx="31" ry="31"/>
<text text-anchor="start" x="921" y="-99.9" font-family="Times New Roman,serif" font-size="32.00">â– </text>
</g>
<!-- 2069924411568&#45;&gt;2069924412816 -->
<g id="edge12" class="edge"><title>2069924411568&#45;&gt;2069924412816</title>
<path fill="none" stroke="black" d="M864.117,-108C872.136,-108 881.152,-108 889.881,-108"/>
<polygon fill="black" stroke="black" points="889.92,-111.5 899.92,-108 889.919,-104.5 889.92,-111.5"/>
</g>
<!-- 2069924485968 -->
<g id="node7" class="node"><title>2069924485968</title>
<ellipse fill="none" stroke="black" cx="27" cy="-45" rx="27" ry="27"/>
<text text-anchor="start" x="16" y="-36.3" font-family="Times New Roman,serif" font-size="34.00">â—</text>
</g>
<!-- 2069924485968&#45;&gt;2069924413248 -->
<g id="edge9" class="edge"><title>2069924485968&#45;&gt;2069924413248</title>
<path fill="none" stroke="black" d="M54.4029,-45C62.3932,-45 71.3106,-45 79.8241,-45"/>
<polygon fill="black" stroke="black" points="79.919,-48.5001 89.919,-45 79.919,-41.5001 79.919,-48.5001"/>
</g>
<!-- 2069924410656&#45;&gt;2069924409888 -->
<g id="edge4" class="edge"><title>2069924410656&#45;&gt;2069924409888</title>
<path fill="none" stroke="black" d="M232.982,-52.6649C241.415,-55.2524 251.003,-58.1941 260.111,-60.9885"/>
<polygon fill="black" stroke="black" points="259.141,-64.3519 269.727,-63.9391 261.194,-57.6598 259.141,-64.3519"/>
</g>
<!-- 2069924410656&#45;&gt;2069924413392 -->
<g id="edge5" class="edge"><title>2069924410656&#45;&gt;2069924413392</title>
<path fill="none" stroke="black" d="M232.982,-37.3351C241.415,-34.7476 251.003,-31.8059 260.111,-29.0115"/>
<polygon fill="black" stroke="black" points="261.194,-32.3402 269.727,-26.0609 259.141,-25.6481 261.194,-32.3402"/>
</g>
<!-- 2069924412864&#45;&gt;2069924412960 -->
<g id="edge6" class="edge"><title>2069924412864&#45;&gt;2069924412960</title>
<path fill="none" stroke="black" d="M414.403,-72C422.393,-72 431.311,-72 439.824,-72"/>
<polygon fill="black" stroke="black" points="439.919,-75.5001 449.919,-72 439.919,-68.5001 439.919,-75.5001"/>
</g>
<!-- 2069924409696&#45;&gt;2069924409552 -->
<g id="edge7" class="edge"><title>2069924409696&#45;&gt;2069924409552</title>
<path fill="none" stroke="black" d="M594.403,-108C602.393,-108 611.311,-108 619.824,-108"/>
<polygon fill="black" stroke="black" points="619.919,-111.5 629.919,-108 619.919,-104.5 619.919,-111.5"/>
</g>
<!-- 2069924412048&#45;&gt;2069924411568 -->
<g id="edge8" class="edge"><title>2069924412048&#45;&gt;2069924411568</title>
<path fill="none" stroke="black" d="M774.403,-108C782.393,-108 791.311,-108 799.824,-108"/>
<polygon fill="black" stroke="black" points="799.919,-111.5 809.919,-108 799.919,-104.5 799.919,-111.5"/>
</g>
</g>
</svg>
