<?xml version="1.0" encoding="UTF-8" standalone="no"?>
<!DOCTYPE svg PUBLIC "-//W3C//DTD SVG 1.1//EN"
 "http://www.w3.org/Graphics/SVG/1.1/DTD/svg11.dtd">
<!-- Generated by graphviz version 2.38.0 (20140413.2041)
 -->
<!-- Title: 2&#45;Net Pages: 1 -->
<svg width="610pt" height="111pt"
 viewBox="0.00 0.00 610.00 111.00" xmlns="http://www.w3.org/2000/svg" xmlns:xlink="http://www.w3.org/1999/xlink">
<g id="graph0" class="graph" transform="scale(1 1) rotate(0) translate(4 107)">
<title>2&#45;Net</title>
<!-- 2069924741280 -->
<g id="node1" class="node"><title>2069924741280</title>
<polygon fill="none" stroke="black" points="144,-76 90,-76 90,-40 144,-40 144,-76"/>
<text text-anchor="middle" x="117" y="-54.9" font-family="Times New Roman,serif" font-size="12.00">A</text>
</g>
<!-- 2069924741760 -->
<g id="node6" class="node"><title>2069924741760</title>
<ellipse fill="none" stroke="black" cx="207" cy="-58" rx="27" ry="27"/>
</g>
<!-- 2069924741280&#45;&gt;2069924741760 -->
<g id="edge1" class="edge"><title>2069924741280&#45;&gt;2069924741760</title>
<path fill="none" stroke="black" d="M144.403,-58C152.393,-58 161.311,-58 169.824,-58"/>
<polygon fill="black" stroke="black" points="169.919,-61.5001 179.919,-58 169.919,-54.5001 169.919,-61.5001"/>
</g>
<!-- 2069924745072 -->
<g id="node2" class="node"><title>2069924745072</title>
<polygon fill="black" stroke="black" points="324,-103 270,-103 270,-67 324,-67 324,-103"/>
</g>
<!-- 2069924743056 -->
<g id="node3" class="node"><title>2069924743056</title>
<polygon fill="none" stroke="black" points="324,-49 270,-49 270,-13 324,-13 324,-49"/>
<text text-anchor="middle" x="297" y="-27.9" font-family="Times New Roman,serif" font-size="12.00">B</text>
</g>
<!-- 2069924742336 -->
<g id="node7" class="node"><title>2069924742336</title>
<ellipse fill="none" stroke="black" cx="387" cy="-31" rx="27" ry="27"/>
</g>
<!-- 2069924743056&#45;&gt;2069924742336 -->
<g id="edge2" class="edge"><title>2069924743056&#45;&gt;2069924742336</title>
<path fill="none" stroke="black" d="M324.403,-31C332.393,-31 341.311,-31 349.824,-31"/>
<polygon fill="black" stroke="black" points="349.919,-34.5001 359.919,-31 349.919,-27.5001 349.919,-34.5001"/>
</g>
<!-- 2069924741568 -->
<g id="node4" class="node"><title>2069924741568</title>
<polygon fill="none" stroke="black" points="504,-49 450,-49 450,-13 504,-13 504,-49"/>
<text text-anchor="middle" x="477" y="-27.9" font-family="Times New Roman,serif" font-size="12.00">D</text>
</g>
<!-- 2069924643648 -->
<g id="node8" class="node"><title>2069924643648</title>
<ellipse fill="none" stroke="black" cx="571" cy="-31" rx="27" ry="27"/>
<ellipse fill="none" stroke="black" cx="571" cy="-31" rx="31" ry="31"/>
<text text-anchor="start" x="561" y="-22.9" font-family="Times New Roman,serif" font-size="32.00">â– </text>
</g>
<!-- 2069924741568&#45;&gt;2069924643648 -->
<g id="edge3" class="edge"><title>2069924741568&#45;&gt;2069924643648</title>
<path fill="none" stroke="black" d="M504.117,-31C512.136,-31 521.152,-31 529.881,-31"/>
<polygon fill="black" stroke="black" points="529.92,-34.5001 539.92,-31 529.919,-27.5001 529.92,-34.5001"/>
</g>
<!-- 2069924644320 -->
<g id="node5" class="node"><title>2069924644320</title>
<ellipse fill="none" stroke="black" cx="27" cy="-58" rx="27" ry="27"/>
<text text-anchor="start" x="16" y="-49.3" font-family="Times New Roman,serif" font-size="34.00">â—</text>
</g>
<!-- 2069924644320&#45;&gt;2069924741280 -->
<g id="edge7" class="edge"><title>2069924644320&#45;&gt;2069924741280</title>
<path fill="none" stroke="black" d="M54.4029,-58C62.3932,-58 71.3106,-58 79.8241,-58"/>
<polygon fill="black" stroke="black" points="79.919,-61.5001 89.919,-58 79.919,-54.5001 79.919,-61.5001"/>
</g>
<!-- 2069924741760&#45;&gt;2069924745072 -->
<g id="edge5" class="edge"><title>2069924741760&#45;&gt;2069924745072</title>
<path fill="none" stroke="black" d="M232.982,-65.6649C241.415,-68.2524 251.003,-71.1941 260.111,-73.9885"/>
<polygon fill="black" stroke="black" points="259.141,-77.3519 269.727,-76.9391 261.194,-70.6598 259.141,-77.3519"/>
</g>
<!-- 2069924741760&#45;&gt;2069924743056 -->
<g id="edge4" class="edge"><title>2069924741760&#45;&gt;2069924743056</title>
<path fill="none" stroke="black" d="M232.982,-50.3351C241.415,-47.7476 251.003,-44.8059 260.111,-42.0115"/>
<polygon fill="black" stroke="black" points="261.194,-45.3402 269.727,-39.0609 259.141,-38.6481 261.194,-45.3402"/>
</g>
<!-- 2069924742336&#45;&gt;2069924741568 -->
<g id="edge6" class="edge"><title>2069924742336&#45;&gt;2069924741568</title>
<path fill="none" stroke="black" d="M414.403,-31C422.393,-31 431.311,-31 439.824,-31"/>
<polygon fill="black" stroke="black" points="439.919,-34.5001 449.919,-31 439.919,-27.5001 439.919,-34.5001"/>
</g>
</g>
</svg>
