<?xml version="1.0" encoding="UTF-8" standalone="no"?>
<!DOCTYPE svg PUBLIC "-//W3C//DTD SVG 1.1//EN"
 "http://www.w3.org/Graphics/SVG/1.1/DTD/svg11.dtd">
<!-- Generated by graphviz version 2.38.0 (20140413.2041)
 -->
<!-- Title: TestPetri Pages: 1 -->
<svg width="790pt" height="134pt"
 viewBox="0.00 0.00 790.00 134.00" xmlns="http://www.w3.org/2000/svg" xmlns:xlink="http://www.w3.org/1999/xlink">
<g id="graph0" class="graph" transform="scale(1 1) rotate(0) translate(4 130)">
<title>TestPetri</title>
<!-- 2679386502144 -->
<g id="node1" class="node"><title>2679386502144</title>
<polygon fill="none" stroke="black" points="504,-117 450,-117 450,-81 504,-81 504,-117"/>
<text text-anchor="middle" x="477" y="-95.9" font-family="Times New Roman,serif" font-size="12.00">task_B</text>
</g>
<!-- 2679401368688 -->
<g id="node9" class="node"><title>2679401368688</title>
<ellipse fill="none" stroke="black" cx="567" cy="-99" rx="27" ry="27"/>
</g>
<!-- 2679386502144&#45;&gt;2679401368688 -->
<g id="edge11" class="edge"><title>2679386502144&#45;&gt;2679401368688</title>
<path fill="none" stroke="black" d="M504.403,-99C512.393,-99 521.311,-99 529.824,-99"/>
<polygon fill="black" stroke="black" points="529.919,-102.5 539.919,-99 529.919,-95.5001 529.919,-102.5"/>
</g>
<!-- 2679401368352 -->
<g id="node2" class="node"><title>2679401368352</title>
<polygon fill="none" stroke="black" points="504,-45 450,-45 450,-9 504,-9 504,-45"/>
<text text-anchor="middle" x="477" y="-23.9" font-family="Times New Roman,serif" font-size="12.00">task_C</text>
</g>
<!-- 2679401215984 -->
<g id="node11" class="node"><title>2679401215984</title>
<ellipse fill="none" stroke="black" cx="567" cy="-27" rx="27" ry="27"/>
</g>
<!-- 2679401368352&#45;&gt;2679401215984 -->
<g id="edge12" class="edge"><title>2679401368352&#45;&gt;2679401215984</title>
<path fill="none" stroke="black" d="M504.403,-27C512.393,-27 521.311,-27 529.824,-27"/>
<polygon fill="black" stroke="black" points="529.919,-30.5001 539.919,-27 529.919,-23.5001 529.919,-30.5001"/>
</g>
<!-- 2679401368160 -->
<g id="node3" class="node"><title>2679401368160</title>
<polygon fill="black" stroke="black" points="324,-81 270,-81 270,-45 324,-45 324,-81"/>
</g>
<!-- 2679401368592 -->
<g id="node8" class="node"><title>2679401368592</title>
<ellipse fill="none" stroke="black" cx="387" cy="-99" rx="27" ry="27"/>
</g>
<!-- 2679401368160&#45;&gt;2679401368592 -->
<g id="edge7" class="edge"><title>2679401368160&#45;&gt;2679401368592</title>
<path fill="none" stroke="black" d="M324.403,-73.8012C333.195,-77.3981 343.11,-81.4542 352.374,-85.2441"/>
<polygon fill="black" stroke="black" points="351.138,-88.5198 361.719,-89.0668 353.789,-82.041 351.138,-88.5198"/>
</g>
<!-- 2679401368880 -->
<g id="node10" class="node"><title>2679401368880</title>
<ellipse fill="none" stroke="black" cx="387" cy="-27" rx="27" ry="27"/>
</g>
<!-- 2679401368160&#45;&gt;2679401368880 -->
<g id="edge8" class="edge"><title>2679401368160&#45;&gt;2679401368880</title>
<path fill="none" stroke="black" d="M324.403,-52.1988C333.195,-48.6019 343.11,-44.5458 352.374,-40.7559"/>
<polygon fill="black" stroke="black" points="353.789,-43.959 361.719,-36.9332 351.138,-37.4802 353.789,-43.959"/>
</g>
<!-- 2679401368304 -->
<g id="node4" class="node"><title>2679401368304</title>
<polygon fill="none" stroke="black" points="144,-81 90,-81 90,-45 144,-45 144,-81"/>
<text text-anchor="middle" x="117" y="-59.9" font-family="Times New Roman,serif" font-size="12.00">task_A</text>
</g>
<!-- 2679401368832 -->
<g id="node7" class="node"><title>2679401368832</title>
<ellipse fill="none" stroke="black" cx="207" cy="-63" rx="27" ry="27"/>
</g>
<!-- 2679401368304&#45;&gt;2679401368832 -->
<g id="edge10" class="edge"><title>2679401368304&#45;&gt;2679401368832</title>
<path fill="none" stroke="black" d="M144.403,-63C152.393,-63 161.311,-63 169.824,-63"/>
<polygon fill="black" stroke="black" points="169.919,-66.5001 179.919,-63 169.919,-59.5001 169.919,-66.5001"/>
</g>
<!-- 2679401368400 -->
<g id="node5" class="node"><title>2679401368400</title>
<polygon fill="black" stroke="black" points="684,-81 630,-81 630,-45 684,-45 684,-81"/>
</g>
<!-- 2679401367248 -->
<g id="node12" class="node"><title>2679401367248</title>
<ellipse fill="none" stroke="black" cx="751" cy="-63" rx="27" ry="27"/>
<ellipse fill="none" stroke="black" cx="751" cy="-63" rx="31" ry="31"/>
<text text-anchor="start" x="741" y="-54.9" font-family="Times New Roman,serif" font-size="32.00">â– </text>
</g>
<!-- 2679401368400&#45;&gt;2679401367248 -->
<g id="edge9" class="edge"><title>2679401368400&#45;&gt;2679401367248</title>
<path fill="none" stroke="black" d="M684.117,-63C692.136,-63 701.152,-63 709.881,-63"/>
<polygon fill="black" stroke="black" points="709.92,-66.5001 719.92,-63 709.919,-59.5001 709.92,-66.5001"/>
</g>
<!-- 2679401367776 -->
<g id="node6" class="node"><title>2679401367776</title>
<ellipse fill="none" stroke="black" cx="27" cy="-63" rx="27" ry="27"/>
<text text-anchor="start" x="16" y="-54.3" font-family="Times New Roman,serif" font-size="34.00">â—</text>
</g>
<!-- 2679401367776&#45;&gt;2679401368304 -->
<g id="edge6" class="edge"><title>2679401367776&#45;&gt;2679401368304</title>
<path fill="none" stroke="black" d="M54.4029,-63C62.3932,-63 71.3106,-63 79.8241,-63"/>
<polygon fill="black" stroke="black" points="79.919,-66.5001 89.919,-63 79.919,-59.5001 79.919,-66.5001"/>
</g>
<!-- 2679401368832&#45;&gt;2679401368160 -->
<g id="edge1" class="edge"><title>2679401368832&#45;&gt;2679401368160</title>
<path fill="none" stroke="black" d="M234.403,-63C242.393,-63 251.311,-63 259.824,-63"/>
<polygon fill="black" stroke="black" points="259.919,-66.5001 269.919,-63 259.919,-59.5001 259.919,-66.5001"/>
</g>
<!-- 2679401368592&#45;&gt;2679386502144 -->
<g id="edge2" class="edge"><title>2679401368592&#45;&gt;2679386502144</title>
<path fill="none" stroke="black" d="M414.403,-99C422.393,-99 431.311,-99 439.824,-99"/>
<polygon fill="black" stroke="black" points="439.919,-102.5 449.919,-99 439.919,-95.5001 439.919,-102.5"/>
</g>
<!-- 2679401368688&#45;&gt;2679401368400 -->
<g id="edge3" class="edge"><title>2679401368688&#45;&gt;2679401368400</title>
<path fill="none" stroke="black" d="M592.513,-88.972C601.119,-85.4514 610.971,-81.421 620.306,-77.6022"/>
<polygon fill="black" stroke="black" points="621.842,-80.7554 629.772,-73.7296 619.191,-74.2766 621.842,-80.7554"/>
</g>
<!-- 2679401368880&#45;&gt;2679401368352 -->
<g id="edge4" class="edge"><title>2679401368880&#45;&gt;2679401368352</title>
<path fill="none" stroke="black" d="M414.403,-27C422.393,-27 431.311,-27 439.824,-27"/>
<polygon fill="black" stroke="black" points="439.919,-30.5001 449.919,-27 439.919,-23.5001 439.919,-30.5001"/>
</g>
<!-- 2679401215984&#45;&gt;2679401368400 -->
<g id="edge5" class="edge"><title>2679401215984&#45;&gt;2679401368400</title>
<path fill="none" stroke="black" d="M592.513,-37.028C601.119,-40.5486 610.971,-44.579 620.306,-48.3978"/>
<polygon fill="black" stroke="black" points="619.191,-51.7234 629.772,-52.2704 621.842,-45.2446 619.191,-51.7234"/>
</g>
</g>
</svg>
