<?xml version="1.0" encoding="UTF-8" standalone="no"?>
<!DOCTYPE svg PUBLIC "-//W3C//DTD SVG 1.1//EN"
 "http://www.w3.org/Graphics/SVG/1.1/DTD/svg11.dtd">
<!-- Generated by graphviz version 2.38.0 (20140413.2041)
 -->
<!-- Title: imdf_net_1643466198.0382879 Pages: 1 -->
<svg width="1312pt" height="201pt"
 viewBox="0.00 0.00 1312.00 201.00" xmlns="http://www.w3.org/2000/svg" xmlns:xlink="http://www.w3.org/1999/xlink">
<g id="graph0" class="graph" transform="scale(1 1) rotate(0) translate(4 197)">
<title>imdf_net_1643466198.0382879</title>
<!-- 2796926319968 -->
<g id="node1" class="node"><title>2796926319968</title>
<polygon fill="none" stroke="black" points="176,-154 90,-154 90,-118 176,-118 176,-154"/>
<text text-anchor="middle" x="133" y="-132.9" font-family="Times New Roman,serif" font-size="12.00">register request</text>
</g>
<!-- 2796926846240 -->
<g id="node15" class="node"><title>2796926846240</title>
<ellipse fill="none" stroke="black" cx="239" cy="-136" rx="27" ry="27"/>
</g>
<!-- 2796926319968&#45;&gt;2796926846240 -->
<g id="edge8" class="edge"><title>2796926319968&#45;&gt;2796926846240</title>
<path fill="none" stroke="black" d="M176.001,-136C184.484,-136 193.335,-136 201.606,-136"/>
<polygon fill="black" stroke="black" points="201.701,-139.5 211.701,-136 201.701,-132.5 201.701,-139.5"/>
</g>
<!-- 2796926588000 -->
<g id="node2" class="node"><title>2796926588000</title>
<polygon fill="black" stroke="black" points="356,-127 302,-127 302,-91 356,-91 356,-127"/>
</g>
<!-- 2796926890960 -->
<g id="node12" class="node"><title>2796926890960</title>
<ellipse fill="none" stroke="black" cx="419" cy="-109" rx="27" ry="27"/>
</g>
<!-- 2796926588000&#45;&gt;2796926890960 -->
<g id="edge21" class="edge"><title>2796926588000&#45;&gt;2796926890960</title>
<path fill="none" stroke="black" d="M356.403,-109C364.393,-109 373.311,-109 381.824,-109"/>
<polygon fill="black" stroke="black" points="381.919,-112.5 391.919,-109 381.919,-105.5 381.919,-112.5"/>
</g>
<!-- 2796926890336 -->
<g id="node17" class="node"><title>2796926890336</title>
<ellipse fill="none" stroke="black" cx="419" cy="-30" rx="27" ry="27"/>
</g>
<!-- 2796926588000&#45;&gt;2796926890336 -->
<g id="edge22" class="edge"><title>2796926588000&#45;&gt;2796926890336</title>
<path fill="none" stroke="black" d="M350.41,-90.6772C362.351,-79.9572 377.584,-66.2826 390.564,-54.6297"/>
<polygon fill="black" stroke="black" points="393.203,-56.9648 398.306,-47.68 388.526,-51.7558 393.203,-56.9648"/>
</g>
<!-- 2796926891584 -->
<g id="node3" class="node"><title>2796926891584</title>
<polygon fill="none" stroke="black" points="586,-149 482,-149 482,-113 586,-113 586,-149"/>
<text text-anchor="middle" x="534" y="-127.9" font-family="Times New Roman,serif" font-size="12.00">examine thoroughly</text>
</g>
<!-- 2796926891152 -->
<g id="node13" class="node"><title>2796926891152</title>
<ellipse fill="none" stroke="black" cx="649" cy="-112" rx="27" ry="27"/>
</g>
<!-- 2796926891584&#45;&gt;2796926891152 -->
<g id="edge2" class="edge"><title>2796926891584&#45;&gt;2796926891152</title>
<path fill="none" stroke="black" d="M586.21,-122.389C594.997,-120.912 603.955,-119.406 612.226,-118.015"/>
<polygon fill="black" stroke="black" points="612.989,-121.436 622.27,-116.326 611.828,-114.533 612.989,-121.436"/>
</g>
<!-- 2796926892064 -->
<g id="node4" class="node"><title>2796926892064</title>
<polygon fill="none" stroke="black" points="982,-193 892,-193 892,-157 982,-157 982,-193"/>
<text text-anchor="middle" x="937" y="-171.9" font-family="Times New Roman,serif" font-size="12.00">reinitiate request</text>
</g>
<!-- 2796926892064&#45;&gt;2796926846240 -->
<g id="edge5" class="edge"><title>2796926892064&#45;&gt;2796926846240</title>
<path fill="none" stroke="black" d="M891.631,-175.711C851.906,-176.286 792.065,-177 740,-177 418,-177 418,-177 418,-177 366.913,-177 309.634,-160.764 274.187,-148.726"/>
<polygon fill="black" stroke="black" points="274.95,-145.286 264.355,-145.304 272.649,-151.897 274.95,-145.286"/>
</g>
<!-- 2796926890768 -->
<g id="node5" class="node"><title>2796926890768</title>
<polygon fill="none" stroke="black" points="569.5,-41 498.5,-41 498.5,-5 569.5,-5 569.5,-41"/>
<text text-anchor="middle" x="534" y="-19.9" font-family="Times New Roman,serif" font-size="12.00">check ticket</text>
</g>
<!-- 2796926890528 -->
<g id="node18" class="node"><title>2796926890528</title>
<ellipse fill="none" stroke="black" cx="649" cy="-27" rx="27" ry="27"/>
</g>
<!-- 2796926890768&#45;&gt;2796926890528 -->
<g id="edge7" class="edge"><title>2796926890768&#45;&gt;2796926890528</title>
<path fill="none" stroke="black" d="M569.518,-24.2219C582.833,-24.6932 598.079,-25.2329 611.57,-25.7104"/>
<polygon fill="black" stroke="black" points="611.825,-29.2216 621.943,-26.0776 612.073,-22.2259 611.825,-29.2216"/>
</g>
<!-- 2796926892304 -->
<g id="node6" class="node"><title>2796926892304</title>
<polygon fill="none" stroke="black" points="580,-95 488,-95 488,-59 580,-59 580,-95"/>
<text text-anchor="middle" x="534" y="-73.9" font-family="Times New Roman,serif" font-size="12.00">examine casually</text>
</g>
<!-- 2796926892304&#45;&gt;2796926891152 -->
<g id="edge3" class="edge"><title>2796926892304&#45;&gt;2796926891152</title>
<path fill="none" stroke="black" d="M580.31,-91.0342C591.292,-94.4354 602.86,-98.0187 613.266,-101.242"/>
<polygon fill="black" stroke="black" points="612.242,-104.588 622.83,-104.204 614.313,-97.9018 612.242,-104.588"/>
</g>
<!-- 2796926892112 -->
<g id="node7" class="node"><title>2796926892112</title>
<polygon fill="none" stroke="black" points="766,-130 712,-130 712,-94 766,-94 766,-130"/>
<text text-anchor="middle" x="739" y="-108.9" font-family="Times New Roman,serif" font-size="12.00">decide</text>
</g>
<!-- 2796926847056 -->
<g id="node16" class="node"><title>2796926847056</title>
<ellipse fill="none" stroke="black" cx="829" cy="-119" rx="27" ry="27"/>
</g>
<!-- 2796926892112&#45;&gt;2796926847056 -->
<g id="edge4" class="edge"><title>2796926892112&#45;&gt;2796926847056</title>
<path fill="none" stroke="black" d="M766.403,-114.1C774.393,-114.736 783.311,-115.445 791.824,-116.122"/>
<polygon fill="black" stroke="black" points="791.673,-119.621 801.919,-116.925 792.228,-112.643 791.673,-119.621"/>
</g>
<!-- 2796926891632 -->
<g id="node8" class="node"><title>2796926891632</title>
<polygon fill="black" stroke="black" points="964,-137 910,-137 910,-101 964,-101 964,-137"/>
</g>
<!-- 2796926848256 -->
<g id="node14" class="node"><title>2796926848256</title>
<ellipse fill="none" stroke="black" cx="1045" cy="-119" rx="27" ry="27"/>
</g>
<!-- 2796926891632&#45;&gt;2796926848256 -->
<g id="edge19" class="edge"><title>2796926891632&#45;&gt;2796926848256</title>
<path fill="none" stroke="black" d="M964.202,-119C977.325,-119 993.422,-119 1007.71,-119"/>
<polygon fill="black" stroke="black" points="1007.73,-122.5 1017.73,-119 1007.73,-115.5 1007.73,-122.5"/>
</g>
<!-- 2796926893264 -->
<g id="node9" class="node"><title>2796926893264</title>
<polygon fill="none" stroke="black" points="1196,-164 1118,-164 1118,-128 1196,-128 1196,-164"/>
<text text-anchor="middle" x="1157" y="-142.9" font-family="Times New Roman,serif" font-size="12.00">reject request</text>
</g>
<!-- 2796926320400 -->
<g id="node19" class="node"><title>2796926320400</title>
<ellipse fill="none" stroke="black" cx="1273" cy="-119" rx="27" ry="27"/>
<ellipse fill="none" stroke="black" cx="1273" cy="-119" rx="31" ry="31"/>
<text text-anchor="start" x="1263" y="-110.9" font-family="Times New Roman,serif" font-size="32.00">■</text>
</g>
<!-- 2796926893264&#45;&gt;2796926320400 -->
<g id="edge1" class="edge"><title>2796926893264&#45;&gt;2796926320400</title>
<path fill="none" stroke="black" d="M1196.28,-136.934C1207.98,-134.162 1220.88,-131.108 1232.65,-128.319"/>
<polygon fill="black" stroke="black" points="1233.73,-131.66 1242.66,-125.95 1232.12,-124.849 1233.73,-131.66"/>
</g>
<!-- 2796926893552 -->
<g id="node10" class="node"><title>2796926893552</title>
<polygon fill="none" stroke="black" points="1206,-110 1108,-110 1108,-74 1206,-74 1206,-110"/>
<text text-anchor="middle" x="1157" y="-88.9" font-family="Times New Roman,serif" font-size="12.00">pay compensation</text>
</g>
<!-- 2796926893552&#45;&gt;2796926320400 -->
<g id="edge6" class="edge"><title>2796926893552&#45;&gt;2796926320400</title>
<path fill="none" stroke="black" d="M1206.02,-103.372C1214.94,-105.485 1224.16,-107.67 1232.78,-109.712"/>
<polygon fill="black" stroke="black" points="1232.03,-113.131 1242.57,-112.03 1233.65,-106.319 1232.03,-113.131"/>
</g>
<!-- 2796926320160 -->
<g id="node11" class="node"><title>2796926320160</title>
<ellipse fill="none" stroke="black" cx="27" cy="-136" rx="27" ry="27"/>
<text text-anchor="start" x="16" y="-127.3" font-family="Times New Roman,serif" font-size="34.00">●</text>
</g>
<!-- 2796926320160&#45;&gt;2796926319968 -->
<g id="edge20" class="edge"><title>2796926320160&#45;&gt;2796926319968</title>
<path fill="none" stroke="black" d="M54.2436,-136C62.1132,-136 71.0358,-136 79.96,-136"/>
<polygon fill="black" stroke="black" points="79.9803,-139.5 89.9803,-136 79.9802,-132.5 79.9803,-139.5"/>
</g>
<!-- 2796926890960&#45;&gt;2796926891584 -->
<g id="edge9" class="edge"><title>2796926890960&#45;&gt;2796926891584</title>
<path fill="none" stroke="black" d="M445.641,-113.992C453.484,-115.519 462.471,-117.269 471.629,-119.052"/>
<polygon fill="black" stroke="black" points="471.104,-122.515 481.589,-120.991 472.442,-115.644 471.104,-122.515"/>
</g>
<!-- 2796926890960&#45;&gt;2796926892304 -->
<g id="edge10" class="edge"><title>2796926890960&#45;&gt;2796926892304</title>
<path fill="none" stroke="black" d="M445.078,-101.898C454.933,-99.1074 466.658,-95.7872 478.282,-92.4954"/>
<polygon fill="black" stroke="black" points="479.311,-95.8416 487.979,-89.7493 477.404,-89.1065 479.311,-95.8416"/>
</g>
<!-- 2796926891152&#45;&gt;2796926892112 -->
<g id="edge11" class="edge"><title>2796926891152&#45;&gt;2796926892112</title>
<path fill="none" stroke="black" d="M676.403,-112C684.393,-112 693.311,-112 701.824,-112"/>
<polygon fill="black" stroke="black" points="701.919,-115.5 711.919,-112 701.919,-108.5 701.919,-115.5"/>
</g>
<!-- 2796926848256&#45;&gt;2796926893264 -->
<g id="edge12" class="edge"><title>2796926848256&#45;&gt;2796926893264</title>
<path fill="none" stroke="black" d="M1071.51,-125.262C1082.33,-127.917 1095.31,-131.103 1107.81,-134.171"/>
<polygon fill="black" stroke="black" points="1107.14,-137.61 1117.68,-136.595 1108.8,-130.812 1107.14,-137.61"/>
</g>
<!-- 2796926848256&#45;&gt;2796926893552 -->
<g id="edge13" class="edge"><title>2796926848256&#45;&gt;2796926893552</title>
<path fill="none" stroke="black" d="M1071.51,-112.738C1079.44,-110.793 1088.52,-108.564 1097.72,-106.304"/>
<polygon fill="black" stroke="black" points="1098.84,-109.635 1107.71,-103.852 1097.17,-102.837 1098.84,-109.635"/>
</g>
<!-- 2796926846240&#45;&gt;2796926588000 -->
<g id="edge14" class="edge"><title>2796926846240&#45;&gt;2796926588000</title>
<path fill="none" stroke="black" d="M264.982,-128.335C273.415,-125.748 283.003,-122.806 292.111,-120.011"/>
<polygon fill="black" stroke="black" points="293.194,-123.34 301.727,-117.061 291.141,-116.648 293.194,-123.34"/>
</g>
<!-- 2796926847056&#45;&gt;2796926892064 -->
<g id="edge15" class="edge"><title>2796926847056&#45;&gt;2796926892064</title>
<path fill="none" stroke="black" d="M853.262,-131.289C864.849,-137.411 879.239,-145.013 892.754,-152.153"/>
<polygon fill="black" stroke="black" points="891.447,-155.421 901.924,-156.998 894.717,-149.232 891.447,-155.421"/>
</g>
<!-- 2796926847056&#45;&gt;2796926891632 -->
<g id="edge16" class="edge"><title>2796926847056&#45;&gt;2796926891632</title>
<path fill="none" stroke="black" d="M856.202,-119C869.325,-119 885.422,-119 899.713,-119"/>
<polygon fill="black" stroke="black" points="899.732,-122.5 909.732,-119 899.732,-115.5 899.732,-122.5"/>
</g>
<!-- 2796926890336&#45;&gt;2796926890768 -->
<g id="edge17" class="edge"><title>2796926890336&#45;&gt;2796926890768</title>
<path fill="none" stroke="black" d="M446.208,-28.3765C458.695,-27.603 473.984,-26.6559 488.231,-25.7733"/>
<polygon fill="black" stroke="black" points="488.602,-29.2571 498.367,-25.1454 488.17,-22.2705 488.602,-29.2571"/>
</g>
<!-- 2796926890528&#45;&gt;2796926892112 -->
<g id="edge18" class="edge"><title>2796926890528&#45;&gt;2796926892112</title>
<path fill="none" stroke="black" d="M669.095,-45.4437C681.634,-57.5558 698.198,-73.5546 711.942,-86.8307"/>
<polygon fill="black" stroke="black" points="709.621,-89.4543 719.245,-93.8843 714.484,-84.4194 709.621,-89.4543"/>
</g>
</g>
</svg>
